<?xml version="1.0" encoding="UTF-8"?>
<svg width="17px" height="17px" viewBox="0 0 17 17" version="1.1" xmlns="http://www.w3.org/2000/svg" xmlns:xlink="http://www.w3.org/1999/xlink">
    <!-- Generator: Sketch 61.2 (89653) - https://sketch.com -->
    <title>facebookIcon</title>
    <desc>Created with Sketch.</desc>
    <defs>
        <polygon id="path-1" points="0.00099609375 0.0006640625 17 0.0006640625 17 16.8967383 0.00099609375 16.8967383"></polygon>
    </defs>
    <g id="Footage-Designs" stroke="none" stroke-width="1" fill="#1877F2" fill-rule="evenodd">
        <g id="IDP-1920px-Share" transform="translate(-1099.000000, -562.000000)">
            <g id="Group-18" transform="translate(978.000000, 546.000000)">
                <g id="f_logo_RGB-Black_1024" transform="translate(121.000000, 16.000000)">
                    <g>
                        <g id="Group-3">
                            <mask id="mask-2" fill="white">
                                <use xlink:href="#path-1"></use>
                            </mask>
                            <g id="Clip-2"></g>
                            <path d="M17,8.5 C17,3.80557617 13.1944238,0 8.5,0 C3.80557617,0 0,3.80557617 0,8.5 C0,12.7425957 3.10832715,16.2590723 7.171875,16.8967383 L7.171875,10.9570312 L5.01367188,10.9570312 L5.01367188,8.5 L7.171875,8.5 L7.171875,6.62734375 C7.171875,4.49703125 8.44086523,3.3203125 10.3824512,3.3203125 C11.3124209,3.3203125 12.2851562,3.48632812 12.2851562,3.48632812 L12.2851562,5.578125 L11.2133262,5.578125 C10.157417,5.578125 9.828125,6.23333887 9.828125,6.90553613 L9.828125,8.5 L12.1855469,8.5 L11.8086914,10.9570312 L9.828125,10.9570312 L9.828125,16.8967383 C13.8916729,16.2590723 17,12.7425957 17,8.5" id="Fill-1" mask="url(#mask-2)"></path>
                        </g>
                        <path d="M11.8086914,10.9570312 L12.1855469,8.5 L9.828125,8.5 L9.828125,6.90553613 C9.828125,6.23333887 10.157417,5.578125 11.2133262,5.578125 L12.2851562,5.578125 L12.2851562,3.48632812 C12.2851562,3.48632812 11.3124209,3.3203125 10.3824512,3.3203125 C8.44086523,3.3203125 7.171875,4.49703125 7.171875,6.62734375 L7.171875,8.5 L5.01367188,8.5 L5.01367188,10.9570312 L7.171875,10.9570312 L7.171875,16.8967383 C7.60462793,16.9646387 8.04817187,17 8.5,17 C8.95182813,17 9.39537207,16.9646387 9.828125,16.8967383 L9.828125,10.9570312 L11.8086914,10.9570312" id="Fill-4" fill="#FFFFFE"></path>
                    </g>
                </g>
            </g>
        </g>
    </g>
</svg>
